<mxfile host="app.diagrams.net" modified="2022-05-14T15:02:46.187Z" agent="5.0 (Windows NT 10.0; Win64; x64) AppleWebKit/537.36 (KHTML, like Gecko) Chrome/101.0.4951.54 Safari/537.36" etag="1QeNbypt070XXtgpQyj5" version="18.0.3" type="github">
  <diagram id="035T0U90gOgb5J_QTAtX" name="JVM分代策略">
    <mxGraphModel dx="1422" dy="762" grid="1" gridSize="10" guides="1" tooltips="1" connect="1" arrows="1" fold="1" page="1" pageScale="1" pageWidth="827" pageHeight="1169" math="0" shadow="0">
      <root>
        <mxCell id="0" />
        <mxCell id="1" parent="0" />
        <mxCell id="DcPcgFlLbKrXOmqBhRN8-1" value="Eden" style="rounded=0;whiteSpace=wrap;html=1;fillColor=#dae8fc;strokeColor=#6c8ebf;" vertex="1" parent="1">
          <mxGeometry x="120" y="400" width="320" height="120" as="geometry" />
        </mxCell>
        <mxCell id="DcPcgFlLbKrXOmqBhRN8-2" value="" style="rounded=0;whiteSpace=wrap;html=1;fillColor=#d5e8d4;strokeColor=#82b366;" vertex="1" parent="1">
          <mxGeometry x="440" y="400" width="40" height="120" as="geometry" />
        </mxCell>
        <mxCell id="DcPcgFlLbKrXOmqBhRN8-4" value="" style="rounded=0;whiteSpace=wrap;html=1;fillColor=#f8cecc;strokeColor=#b85450;" vertex="1" parent="1">
          <mxGeometry x="520" y="400" width="800" height="120" as="geometry" />
        </mxCell>
        <mxCell id="DcPcgFlLbKrXOmqBhRN8-5" value="" style="rounded=0;whiteSpace=wrap;html=1;fillColor=#d5e8d4;strokeColor=#82b366;" vertex="1" parent="1">
          <mxGeometry x="480" y="400" width="40" height="120" as="geometry" />
        </mxCell>
        <mxCell id="DcPcgFlLbKrXOmqBhRN8-6" value="Young Generation" style="text;html=1;align=center;verticalAlign=middle;resizable=0;points=[];autosize=1;strokeColor=none;fillColor=none;" vertex="1" parent="1">
          <mxGeometry x="230" y="600" width="110" height="20" as="geometry" />
        </mxCell>
        <mxCell id="DcPcgFlLbKrXOmqBhRN8-7" value="Old Generation" style="text;html=1;align=center;verticalAlign=middle;resizable=0;points=[];autosize=1;strokeColor=none;fillColor=none;" vertex="1" parent="1">
          <mxGeometry x="900" y="610" width="100" height="20" as="geometry" />
        </mxCell>
        <mxCell id="DcPcgFlLbKrXOmqBhRN8-9" value="" style="shape=crossbar;whiteSpace=wrap;html=1;rounded=1;" vertex="1" parent="1">
          <mxGeometry x="120" y="565" width="400" height="20" as="geometry" />
        </mxCell>
        <mxCell id="DcPcgFlLbKrXOmqBhRN8-11" value="" style="shape=crossbar;whiteSpace=wrap;html=1;rounded=1;" vertex="1" parent="1">
          <mxGeometry x="520" y="565" width="800" height="20" as="geometry" />
        </mxCell>
        <mxCell id="DcPcgFlLbKrXOmqBhRN8-12" value="&lt;font style=&quot;font-size: 30px;&quot;&gt;1:2&lt;/font&gt;" style="text;html=1;align=center;verticalAlign=middle;resizable=0;points=[];autosize=1;strokeColor=none;fillColor=none;" vertex="1" parent="1">
          <mxGeometry x="489" y="610" width="60" height="30" as="geometry" />
        </mxCell>
        <mxCell id="DcPcgFlLbKrXOmqBhRN8-14" value="&lt;span style=&quot;font-size: 12px;&quot;&gt;Survivor 1&lt;/span&gt;" style="text;html=1;align=center;verticalAlign=middle;resizable=0;points=[];autosize=1;strokeColor=none;fillColor=none;fontSize=30;" vertex="1" parent="1">
          <mxGeometry x="425" y="330" width="70" height="50" as="geometry" />
        </mxCell>
        <mxCell id="DcPcgFlLbKrXOmqBhRN8-15" value="&lt;span style=&quot;font-size: 12px;&quot;&gt;Survivor 2&lt;/span&gt;" style="text;html=1;align=center;verticalAlign=middle;resizable=0;points=[];autosize=1;strokeColor=none;fillColor=none;fontSize=30;" vertex="1" parent="1">
          <mxGeometry x="470" y="350" width="70" height="50" as="geometry" />
        </mxCell>
        <mxCell id="DcPcgFlLbKrXOmqBhRN8-16" value="8:1:1" style="text;html=1;align=center;verticalAlign=middle;resizable=0;points=[];autosize=1;strokeColor=none;fillColor=none;fontSize=30;" vertex="1" parent="1">
          <mxGeometry x="400" y="290" width="80" height="40" as="geometry" />
        </mxCell>
        <mxCell id="DcPcgFlLbKrXOmqBhRN8-17" value="JVM分代策略" style="text;html=1;align=center;verticalAlign=middle;resizable=0;points=[];autosize=1;strokeColor=none;fillColor=none;fontSize=30;" vertex="1" parent="1">
          <mxGeometry x="590" y="160" width="200" height="40" as="geometry" />
        </mxCell>
      </root>
    </mxGraphModel>
  </diagram>
</mxfile>
